# xmcd
#
# Track frame offsets:
#	183
#	12435
#	21973
#	32233
#	45058
#	57363
#	66658
#	78183
#	89853
#	99573
#	110295
#	120960
#	132370
#	144555
#	154088
#	163818
#
# Disc length: 2341 seconds
#
# Revision: 2
# Processed by: cddbd v1.4b41PL3 Copyright (c) Steve Scherf et al.
# Submitted via: EZCDDA 4.3.2
#
DISCID=d5092310
DTITLE=The Impressions - For Your Precious Love
DYEAR=1900
DGENRE=
TTITLE0=For your precious love
TTITLE1=Sweet was the wind
TTITLE2=Lover's lane
TTITLE3=Don't drive me away
TTITLE4=The gift of love
TTITLE5=At the country fair
TTITLE6=Come back my love
TTITLE7=Love me
TTITLE8=Little young lover
TTITLE9=Lonely one
TTITLE10=A long time ago
TTITLE11=Senorita, I love you
TTITLE12=Say that you love me
TTITLE13=New love (I found a love)
TTITLE14=Believe in me
TTITLE15=Let me know
EXTD=
EXTT0=
EXTT1=
EXTT2=
EXTT3=
EXTT4=
EXTT5=
EXTT6=
EXTT7=
EXTT8=
EXTT9=
EXTT10=
EXTT11=
EXTT12=
EXTT13=
EXTT14=
EXTT15=
PLAYORDER=
